<svg width="90" height="90" viewBox="0 0 90 90" fill="none" xmlns="http://www.w3.org/2000/svg">
<g clip-path="url(#clip0_3_950)">
<path d="M56.25 68.625C54.5625 68.625 53.4375 68.0625 51.75 67.5L45 64.6875L38.25 67.5C37.125 68.0625 35.4375 68.625 33.75 68.625C32.625 68.625 32.0625 68.625 30.9375 68.0625L28.125 90L45 78.75L61.875 90L58.5 68.0625C57.9375 68.625 56.8125 68.625 56.25 68.625Z" fill="#15803D"/>
<path d="M72.5624 33.1875C71.9999 32.0625 71.9999 30.375 72.5624 29.25L75.9374 22.5C77.0624 20.25 75.9374 17.4375 73.1249 16.3125L65.8124 13.5C64.6874 12.9375 63.5624 11.8125 62.9999 10.6875L60.1874 3.37501C59.6249 1.12501 57.9374 1.14441e-05 56.2499 1.14441e-05C55.6874 1.14441e-05 54.5624 1.14441e-05 53.9999 0.562511L46.6874 3.93751C46.1249 3.93751 45.5624 3.93751 44.9999 3.93751C44.4374 3.93751 43.8749 3.93751 43.3124 3.37501L35.9999 0.562511C35.4374 1.14441e-05 34.3124 1.14441e-05 33.7499 1.14441e-05C32.0624 1.14441e-05 30.3749 1.12501 29.2499 2.81251L26.4374 10.6875C26.4374 11.8125 25.3124 12.9375 24.1874 13.5L16.3124 16.3125C14.0624 16.875 12.9374 19.6875 14.0624 22.5L17.4374 29.8125C17.9999 30.9375 17.9999 32.625 17.4374 33.75L14.0624 40.5C12.9374 42.75 14.0624 45.5625 16.8749 46.6875L24.1874 49.5C25.3124 50.0625 26.4374 51.1875 26.9999 52.3125L29.8124 59.625C30.3749 61.875 32.0624 63 33.7499 63C34.3124 63 34.8749 63 35.4374 62.4375L42.7499 59.0625C43.3124 59.0625 43.8749 58.5 44.4374 58.5C44.9999 58.5 45.5624 58.5 46.1249 59.0625L53.4374 62.4375C53.9999 63 54.5624 63 55.1249 63C56.8124 63 58.4999 61.875 59.6249 60.1875L62.4374 52.875C62.9999 51.75 64.1249 50.625 65.2499 50.0625L72.5624 47.25C74.8124 46.125 76.4999 43.3125 75.3749 41.0625L72.5624 33.1875ZM44.9999 54C32.6249 54 22.4999 43.875 22.4999 31.5C22.4999 19.125 32.6249 9.00001 44.9999 9.00001C57.3749 9.00001 67.4999 19.125 67.4999 31.5C67.4999 43.875 57.3749 54 44.9999 54Z" fill="#15803D"/>
<path d="M37.845 44.4731V23.7507L39.6622 25.6317H33.1267V22.1567H41.9895V44.4731H37.845ZM49.987 44.4731V23.7507L51.8042 25.6317H45.2687V22.1567H54.1315V44.4731H49.987Z" fill="#15803D"/>
</g>
<defs>
<clipPath id="clip0_3_950">
<rect width="90" height="90" fill="white"/>
</clipPath>
</defs>
</svg>
