<svg width="90" height="90" viewBox="0 0 90 90" fill="none" xmlns="http://www.w3.org/2000/svg">
<circle cx="45.0002" cy="30" r="11.25" stroke="#15803D" stroke-width="7.5" stroke-linecap="round"/>
<path d="M57.2548 30C58.2494 28.2774 59.8875 27.0204 61.8089 26.5056C63.7302 25.9907 65.7774 26.2602 67.5 27.2548C69.2226 28.2494 70.4796 29.8875 70.9944 31.8089C71.5093 33.7302 71.2398 35.7774 70.2452 37.5C69.2506 39.2226 67.6125 40.4796 65.6911 40.9944C63.7698 41.5093 61.7226 41.2398 60 40.2452C58.2774 39.2506 57.0204 37.6125 56.5056 35.6911C55.9907 33.7698 56.2602 31.7226 57.2548 30L57.2548 30Z" stroke="#15803D" stroke-width="7.5"/>
<path d="M19.7548 30C20.7494 28.2774 22.3875 27.0204 24.3089 26.5056C26.2302 25.9907 28.2774 26.2602 30 27.2548C31.7226 28.2494 32.9796 29.8875 33.4944 31.8089C34.0093 33.7302 33.7398 35.7774 32.7452 37.5C31.7506 39.2226 30.1125 40.4796 28.1911 40.9944C26.2698 41.5093 24.2226 41.2398 22.5 40.2452C20.7774 39.2506 19.5204 37.6125 19.0056 35.6911C18.4907 33.7698 18.7602 31.7226 19.7548 30L19.7548 30Z" stroke="#15803D" stroke-width="7.5"/>
<path d="M63.3061 67.4999L59.63 68.2403L60.2361 71.2499H63.3061V67.4999ZM77.7009 63.3905L81.2352 62.1369V62.1369L77.7009 63.3905ZM55.4282 55.1645L53.16 52.1782L48.8229 55.4725L53.4477 58.3488L55.4282 55.1645ZM74.5022 63.7499H63.3061V71.2499H74.5022V63.7499ZM74.1667 64.6441C74.1403 64.5696 74.1159 64.4287 74.1471 64.2575C74.1767 64.0954 74.2436 63.9724 74.307 63.8936C74.4278 63.7432 74.5277 63.7499 74.5022 63.7499V71.2499C78.7998 71.2499 83.0303 67.1978 81.2352 62.1369L74.1667 64.6441ZM63.7502 56.2499C69.9062 56.2499 72.7603 60.679 74.1667 64.6441L81.2352 62.1369C79.4913 57.2203 74.8071 48.7499 63.7502 48.7499V56.2499ZM57.6964 58.1507C59.1382 57.0556 61.0576 56.2499 63.7502 56.2499V48.7499C59.3931 48.7499 55.8855 50.108 53.16 52.1782L57.6964 58.1507ZM53.4477 58.3488C57.3445 60.7724 58.9766 64.9965 59.63 68.2403L66.9823 66.7596C66.165 62.7013 63.8904 56.0114 57.4087 51.9801L53.4477 58.3488Z" fill="#15803D"/>
<path d="M34.572 55.1644L36.5524 58.3488L41.1773 55.4724L36.8402 52.1782L34.572 55.1644ZM12.2992 63.3905L15.8335 64.6441L12.2992 63.3905ZM26.6939 67.4999V71.2499H29.764L30.3701 68.2403L26.6939 67.4999ZM26.25 56.2499C28.9426 56.2499 30.862 57.0556 32.3037 58.1507L36.8402 52.1782C34.1147 50.108 30.6071 48.7499 26.25 48.7499V56.2499ZM15.8335 64.6441C17.2399 60.679 20.0941 56.2499 26.25 56.2499V48.7499C15.1931 48.7499 10.5089 57.2202 8.76496 62.1369L15.8335 64.6441ZM15.4979 63.7499C15.4725 63.7499 15.5724 63.7432 15.6932 63.8936C15.7566 63.9724 15.8235 64.0954 15.853 64.2575C15.8842 64.4287 15.8599 64.5696 15.8335 64.6441L8.76496 62.1369C6.96985 67.1978 11.2004 71.2499 15.4979 71.2499V63.7499ZM26.6939 63.7499H15.4979V71.2499H26.6939V63.7499ZM30.3701 68.2403C31.0234 64.9965 32.6556 60.7724 36.5524 58.3488L32.5915 51.9801C26.1097 56.0113 23.8351 62.7013 23.0178 66.7596L30.3701 68.2403Z" fill="#15803D"/>
<path d="M44.9998 52.5C58.393 52.5 62.2194 62.0669 63.3125 67.5333C63.7187 69.5642 62.0708 71.25 59.9998 71.25H29.9998C27.9287 71.25 26.2808 69.5642 26.687 67.5333C27.7801 62.0669 31.6065 52.5 44.9998 52.5Z" stroke="#15803D" stroke-width="7.5" stroke-linecap="round"/>
</svg>
